<svg width="720" height="200" viewBox="0 0 720 200" xmlns="http://www.w3.org/2000/svg">
  <defs>
    <linearGradient id="shieldGrad2" x1="0%" y1="0%" x2="100%" y2="100%">
      <stop offset="0%" stop-color="#1f5fd6"/>
      <stop offset="100%" stop-color="#0b3d91"/>
    </linearGradient>
    <linearGradient id="nodeGrad2" x1="0%" y1="0%" x2="100%" y2="100%">
      <stop offset="0%" stop-color="#5ee7ff"/>
      <stop offset="100%" stop-color="#38bdf8"/>
    </linearGradient>
  </defs>

  <g transform="translate(20,20) scale(0.625)">
    <path d="M128 18 L214 50 V118 C214 176 178 214 128 240 C78 214 42 176 42 118 V50 Z"
          fill="url(#shieldGrad2)" stroke="#08265c" stroke-width="4"/>
    <path d="M128 34 L198 60 V118 C198 168 168 200 128 222 C88 200 58 168 58 118 V60 Z"
          fill="none" stroke="#5ee7ff" stroke-width="2" opacity="0.35"/>
    <line x1="128" y1="96"  x2="98"  y2="150" stroke="#eaf6ff" stroke-width="5" stroke-linecap="round"/>
    <line x1="128" y1="96"  x2="158" y2="150" stroke="#eaf6ff" stroke-width="5" stroke-linecap="round"/>
    <line x1="98"  y1="150" x2="158" y2="150" stroke="#eaf6ff" stroke-width="5" stroke-linecap="round"/>
    <circle cx="128" cy="96"  r="16" fill="url(#nodeGrad2)" stroke="#eaf6ff" stroke-width="3"/>
    <circle cx="98"  cy="150" r="12" fill="url(#nodeGrad2)" stroke="#eaf6ff" stroke-width="3"/>
    <circle cx="158" cy="150" r="12" fill="url(#nodeGrad2)" stroke="#eaf6ff" stroke-width="3"/>
    <circle cx="128" cy="96" r="24" fill="none" stroke="#5ee7ff" stroke-width="2" opacity="0.6"/>
  </g>

  <text x="190" y="105" font-family="'Segoe UI', Arial, sans-serif" font-size="52" font-weight="700" fill="#0b3d91">
    ITRAP
  </text>
  <text x="190" y="140" font-family="'Segoe UI', Arial, sans-serif" font-size="20" font-weight="400" fill="#3b5a8a">
    Identity Threat Response Automation Platform
  </text>
</svg>
